<svg width="49" height="49" viewBox="0 0 49 49" fill="none" xmlns="http://www.w3.org/2000/svg">
<circle cx="24.5" cy="24.5" r="23.5" stroke="white" stroke-width="2"/>
<path d="M30.4167 18.5835H30.4283M18.1667 13.3335H29.8333C33.055 13.3335 35.6667 15.9452 35.6667 19.1668V30.8335C35.6667 34.0552 33.055 36.6668 29.8333 36.6668H18.1667C14.945 36.6668 12.3333 34.0552 12.3333 30.8335V19.1668C12.3333 15.9452 14.945 13.3335 18.1667 13.3335ZM28.6667 24.2652C28.8107 25.2361 28.6448 26.2277 28.1927 27.099C27.7406 27.9703 27.0253 28.6768 26.1486 29.1181C25.2718 29.5594 24.2782 29.713 23.3091 29.5571C22.34 29.4011 21.4447 28.9436 20.7506 28.2495C20.0566 27.5554 19.599 26.6602 19.4431 25.6911C19.2871 24.722 19.4407 23.7284 19.8821 22.8516C20.3234 21.9748 21.0299 21.2595 21.9012 20.8074C22.7724 20.3554 23.7641 20.1895 24.735 20.3335C25.7254 20.4804 26.6423 20.9419 27.3503 21.6499C28.0583 22.3578 28.5198 23.2748 28.6667 24.2652Z" stroke="white" stroke-width="2.5" stroke-linecap="round" stroke-linejoin="round"/>
</svg>
