<svg width="49" height="49" viewBox="0 0 49 49" fill="none" xmlns="http://www.w3.org/2000/svg">
<circle cx="24.5" cy="24.5" r="23.5" stroke="white" stroke-width="2"/>
<g clip-path="url(#clip0_96_246)">
<path d="M32.4768 17.3678C30.8715 16.6336 29.1666 16.0985 27.3871 15.7998C27.163 16.1856 26.9141 16.7082 26.7399 17.1189C24.8471 16.8451 22.968 16.8451 21.1013 17.1189C20.9271 16.7082 20.6658 16.1856 20.4542 15.7998C18.6622 16.0985 16.9573 16.6336 15.3632 17.3678C12.1401 22.1216 11.269 26.7633 11.7045 31.3428C13.845 32.8984 15.9108 33.8442 17.9405 34.4665C18.4382 33.7945 18.8863 33.0727 19.272 32.3135C18.5378 32.0398 17.8409 31.7038 17.1689 31.3055C17.3431 31.1811 17.5174 31.0443 17.6791 30.9073C21.736 32.7616 26.1301 32.7616 30.1373 30.9073C30.3115 31.0443 30.4733 31.1811 30.6475 31.3055C29.9755 31.7038 29.2786 32.0398 28.5443 32.3135C28.9301 33.0727 29.3781 33.7945 29.8759 34.4665C31.9043 33.8442 33.9826 32.8984 36.1118 31.3428C36.6469 26.0416 35.2643 21.4372 32.4768 17.3678ZM19.832 28.518C18.6124 28.518 17.6169 27.4105 17.6169 26.054C17.6169 24.6976 18.5876 23.59 19.832 23.59C21.064 23.59 22.072 24.6976 22.0471 26.054C22.0471 27.4105 21.064 28.518 19.832 28.518ZM28.0093 28.518C26.7896 28.518 25.7928 27.4105 25.7928 26.054C25.7928 24.6976 26.7648 23.59 28.0093 23.59C29.2413 23.59 30.2493 24.6976 30.2243 26.054C30.2243 27.4105 29.2538 28.518 28.0093 28.518Z" stroke="white" stroke-width="2" stroke-linejoin="round"/>
</g>
<defs>
<clipPath id="clip0_96_246">
<rect width="28" height="28" fill="white" transform="translate(10.0001 11)"/>
</clipPath>
</defs>
</svg>
