<svg width="49" height="49" viewBox="0 0 49 49" fill="none" xmlns="http://www.w3.org/2000/svg">
<circle cx="24.5" cy="24.5" r="23.5" stroke="white" stroke-width="2"/>
<path d="M28.6668 19.3335C30.5233 19.3335 32.3038 20.071 33.6165 21.3837C34.9293 22.6965 35.6668 24.477 35.6668 26.3335V34.5002H31.0001V26.3335C31.0001 25.7147 30.7543 25.1212 30.3167 24.6836C29.8791 24.246 29.2856 24.0002 28.6668 24.0002C28.0479 24.0002 27.4544 24.246 27.0169 24.6836C26.5793 25.1212 26.3334 25.7147 26.3334 26.3335V34.5002H21.6668V26.3335C21.6668 24.477 22.4043 22.6965 23.717 21.3837C25.0298 20.071 26.8103 19.3335 28.6668 19.3335Z" stroke="white" stroke-width="2.5" stroke-linecap="round" stroke-linejoin="round"/>
<path d="M17.0001 20.5002H12.3334V34.5002H17.0001V20.5002Z" stroke="white" stroke-width="2.5" stroke-linecap="round" stroke-linejoin="round"/>
<path d="M14.6668 17.0002C15.9554 17.0002 17.0001 15.9555 17.0001 14.6668C17.0001 13.3782 15.9554 12.3335 14.6668 12.3335C13.3781 12.3335 12.3334 13.3782 12.3334 14.6668C12.3334 15.9555 13.3781 17.0002 14.6668 17.0002Z" stroke="white" stroke-width="2.5" stroke-linecap="round" stroke-linejoin="round"/>
</svg>
