<svg width="49" height="49" viewBox="0 0 49 49" fill="none" xmlns="http://www.w3.org/2000/svg">
<circle cx="24.5" cy="24.5" r="23.5" stroke="white" stroke-width="2"/>
<g clip-path="url(#clip0_96_243)">
<path d="M20.5001 33.1665C14.6668 34.9165 14.6668 30.2498 12.3334 29.6665M28.6668 36.6665V32.1515C28.7105 31.5952 28.6354 31.036 28.4463 30.5109C28.2572 29.9859 27.9585 29.5072 27.5701 29.1065C31.2334 28.6982 35.0834 27.3098 35.0834 20.9398C35.0831 19.311 34.4566 17.7446 33.3334 16.5648C33.8653 15.1398 33.8277 13.5646 33.2284 12.1665C33.2284 12.1665 31.8518 11.7582 28.6668 13.8932C25.9928 13.1685 23.1741 13.1685 20.5001 13.8932C17.3151 11.7582 15.9384 12.1665 15.9384 12.1665C15.3392 13.5646 15.3016 15.1398 15.8334 16.5648C14.7019 17.7533 14.0747 19.3339 14.0834 20.9748C14.0834 27.2982 17.9334 28.6865 21.5968 29.1415C21.2129 29.5381 20.9169 30.0112 20.728 30.5298C20.539 31.0484 20.4614 31.6009 20.5001 32.1515V36.6665" stroke="white" stroke-width="2.5" stroke-linecap="round" stroke-linejoin="round"/>
</g>
<defs>
<clipPath id="clip0_96_243">
<rect width="28" height="28" fill="white" transform="translate(10.0001 11)"/>
</clipPath>
</defs>
</svg>
